<?xml version="1.0" encoding="UTF-8" standalone="no"?>
<!DOCTYPE svg PUBLIC "-//W3C//DTD SVG 1.1//EN" "http://www.w3.org/Graphics/SVG/1.1/DTD/svg11.dtd">
<svg width="100%" height="100%" viewBox="0 0 158 155" version="1.1" xmlns="http://www.w3.org/2000/svg" xmlns:xlink="http://www.w3.org/1999/xlink" xml:space="preserve" style="fill-rule:evenodd;clip-rule:evenodd;stroke-linejoin:round;stroke-miterlimit:1.41421;">
    <g transform="matrix(1.92376,0,0,1.4577,-72.6864,23.1008)">
        <path d="M84.491,89.257L53.243,89.257C49.211,89.257 45.803,87.889 43.019,85.153C40.235,82.417 38.843,79.033 38.843,75.001L38.843,-0.887C38.843,-4.919 40.235,-8.303 43.019,-11.039C45.803,-13.775 49.211,-15.143 53.243,-15.143L119.051,-15.143L109.835,3.433L64.763,3.433C63.611,3.433 62.579,3.841 61.667,4.657C60.755,5.473 60.299,6.505 60.299,7.753L60.299,66.361C60.299,67.609 60.755,68.641 61.667,69.457C62.579,70.273 63.611,70.681 64.763,70.681L93.851,70.681L84.491,89.257ZM67.355,47.065L76.571,28.489L104.795,28.489C108.827,28.489 112.211,29.857 114.947,32.593C117.683,35.329 119.051,38.713 119.051,42.745L119.051,89.257L97.451,89.257L97.451,51.385C97.451,50.137 97.043,49.105 96.227,48.289C95.411,47.473 94.427,47.065 93.275,47.065L67.355,47.065Z" style="fill:white;fill-rule:nonzero;"/>
    </g>
</svg>
